<?xml version="1.0" encoding="utf-8"?><svg viewBox="0 0 1440 233" xmlns="http://www.w3.org/2000/svg" xmlns:xlink="http://www.w3.org/1999/xlink"><style>:root>svg{display:none}:root>svg:target{display:block}</style><svg fill="none" viewBox="0 0 68 59" id="benefits-dose" xmlns="http://www.w3.org/2000/svg"><path d="M59.625 1.293H1v50.25" stroke="#47093E"/><path stroke="#47093E" d="M9.875 8.972H67.5v49.25H9.875z"/></svg><svg fill="none" viewBox="0 0 67 67" id="benefits-eff" xmlns="http://www.w3.org/2000/svg"><circle cx="32.882" cy="33.471" r="24.479" stroke="#590D56"/><path stroke="#47093E" d="M33.029 66.942V0M66.942 34.029H0"/></svg><svg fill="none" viewBox="0 0 30 30" id="benefits-info" xmlns="http://www.w3.org/2000/svg"><circle cx="15" cy="15" r="14.5" stroke="#47093E"/><path d="M14.624 10.648c-.384 0-.688-.112-.912-.336-.224-.224-.336-.512-.336-.864 0-.405.128-.741.384-1.008s.597-.4 1.024-.4c.427 0 .752.117.976.352.224.224.336.507.336.848 0 .427-.128.768-.384 1.024s-.613.384-1.072.384h-.016zm-.848 2.976l-1.136-.304v-1.072l2.928-.352h.032l.448.32v7.696l1.072.128V21h-4.464v-.96l1.12-.144v-6.272z" fill="#47093E"/></svg><svg fill="none" viewBox="0 0 68 58" id="benefits-tab" xmlns="http://www.w3.org/2000/svg"><path d="M67 55.008v-53h-9" stroke="#47093E"/><rect x=".5" y=".508" width="28.776" height="56" rx="14.388" stroke="#47093E"/><path stroke="#47093E" d="M0 27.582h28.925M42.646 33.577l11-11M53.646 33.438l-11-11"/></svg><svg fill="none" viewBox="0 0 9 16" id="btn-next" xmlns="http://www.w3.org/2000/svg"><path d="M.99 14.942l6.84-6.84L.99 1.26" stroke="#5B0E58"/></svg><svg fill="none" viewBox="0 0 9 15" id="btn-prev" xmlns="http://www.w3.org/2000/svg"><path d="M7.8.764L.96 7.604l6.84 6.842" stroke="#5B0E58"/></svg><svg fill="none" viewBox="0 0 35 8" id="burger" xmlns="http://www.w3.org/2000/svg"><path d="M1.011 2.888C3.682 2.087 8 1.234 11.161 2.08c4.76 1.276 8.789 5.398 15.804 4.114a25.599 25.599 0 007.014-2.367" stroke="#47093E" stroke-width="2"/></svg><svg fill="none" viewBox="0 0 10 10" id="cross" xmlns="http://www.w3.org/2000/svg"><path fill-rule="evenodd" clip-rule="evenodd" d="M9.803 1.138A.667.667 0 108.86.195L5 4.056 1.137.196a.667.667 0 10-.943.942L4.056 5 .196 8.86a.667.667 0 00.942.943L5 5.942 8.86 9.803a.667.667 0 10.943-.943L5.942 5l3.861-3.862z" fill="#2D3440"/></svg><svg fill="none" viewBox="0 0 28 27" id="fb" xmlns="http://www.w3.org/2000/svg"><path d="M24.409.625H3.784A2.813 2.813 0 00.97 3.438v20.625a2.777 2.777 0 002.813 2.812h8.027v-8.906H8.12V13.75h3.691v-3.164c0-3.633 2.168-5.684 5.45-5.684 1.64 0 3.28.293 3.28.293V8.77h-1.816c-1.816 0-2.402 1.113-2.402 2.285v2.695h4.043l-.645 4.219h-3.398v8.906h8.086a2.813 2.813 0 002.812-2.813V3.438c0-1.523-1.289-2.812-2.812-2.812z" fill="#7A7A7A"/></svg><svg fill="none" viewBox="0 0 22 26" id="info" xmlns="http://www.w3.org/2000/svg"><path d="M20.116 11c0 1.155-.534 2.562-1.471 4.099-.923 1.515-2.17 3.048-3.44 4.43a54.09 54.09 0 01-4.44 4.288 54.092 54.092 0 01-4.44-4.287c-1.27-1.383-2.516-2.916-3.44-4.431-.937-1.537-1.471-2.944-1.471-4.099a9.351 9.351 0 1118.702 0z" stroke="#47093E" stroke-width="2"/><path d="M8.058 14.953l2.895-7.529 2.896 7.529M8.911 12.484h4.084" stroke="#47093E" stroke-width="1.7" stroke-linejoin="bevel"/></svg><svg fill="none" viewBox="0 0 68 81" id="link-info" xmlns="http://www.w3.org/2000/svg"><path d="M67.462 33.98c0 4.556-2.068 9.704-5.237 14.903-3.162 5.188-7.386 10.371-11.622 14.982-4.234 4.608-8.47 8.634-11.648 11.508a173.522 173.522 0 01-3.838 3.374c-.463.394-.827.698-1.074.904l-.062.052-.062-.052c-.248-.206-.611-.51-1.074-.904-.926-.789-2.25-1.937-3.838-3.374-3.178-2.874-7.414-6.9-11.648-11.508-4.236-4.61-8.46-9.794-11.623-14.982C2.568 43.684.5 38.535.5 33.981.5 15.49 15.49.5 33.98.5c18.492 0 33.482 14.99 33.482 33.48z" stroke="#47093E"/><path d="M25.093 46.955L34.6 22.242l9.505 24.713M27.895 38.851h13.406" stroke="#47093E" stroke-linejoin="bevel"/></svg><svg fill="none" viewBox="0 0 68 67" id="link-instruction" xmlns="http://www.w3.org/2000/svg"><path stroke="#47093E" d="M0 66.5h68M35.5 58V0M.5 24.5l35 33.5 32-33.5"/></svg><svg fill="none" viewBox="0 0 67 67" id="link-scheme" xmlns="http://www.w3.org/2000/svg"><circle cx="33.5" cy="33.5" r="33" stroke="#47093E"/><path d="M25.96 20.44L48.58 33.5 25.96 46.56V20.44z" stroke="#47093E"/></svg><svg fill="none" viewBox="0 0 203 39" id="logo" xmlns="http://www.w3.org/2000/svg"><path d="M23.652 28.75c0 1.562-.294 2.944-.882 4.146a8.392 8.392 0 01-2.381 2.959 11.083 11.083 0 01-3.887 1.986c-1.413.396-3.206.59-5.379.59H0V6.954h9.287c2.288 0 4.002.086 5.135.252 1.14.165 2.223.525 3.263 1.058 1.148.612 1.987 1.382 2.51 2.34.517.95.782 2.087.782 3.411 0 1.497-.38 2.764-1.14 3.815-.76 1.051-1.772 1.893-3.034 2.527v.172c2.123.44 3.794 1.368 5.013 2.8 1.226 1.426 1.836 3.233 1.836 5.42zm-7.014-14.188c0-.756-.129-1.403-.38-1.922-.25-.518-.66-.943-1.22-1.267-.659-.381-1.462-.611-2.402-.705-.94-.094-2.108-.137-3.5-.137H4.175v9.091h5.393c1.305 0 2.345-.064 3.12-.201a5.882 5.882 0 002.151-.835c.66-.417 1.126-.965 1.399-1.641.265-.677.401-1.469.401-2.383zm2.675 14.353c0-1.267-.186-2.274-.566-3.023-.38-.748-1.069-1.382-2.066-1.9-.674-.353-1.492-.583-2.453-.684-.96-.108-2.13-.158-3.506-.158H4.174V34.86h5.522c1.829 0 3.32-.093 4.49-.288 1.161-.187 2.122-.54 2.861-1.044.789-.554 1.363-1.18 1.728-1.886.359-.705.538-1.612.538-2.728zM50.237 38.431H29.576V6.954h20.661v3.721H33.742v8.63h16.495v3.722H33.742v11.69h16.495v3.715zM80.846 38.431h-4.174v-15.41H61.023v15.41H56.85V6.954h4.174v12.345h15.649V6.954h4.174V38.43zM114 38.431h-4.446l-3.077-8.774H92.915L89.84 38.43h-4.231L97.025 6.954h5.558L114 38.43zm-8.807-12.366L99.7 10.61l-5.515 15.455h11.008zM139.273 16.47c0 1.396-.244 2.685-.724 3.88-.488 1.187-1.162 2.224-2.03 3.095a10.359 10.359 0 01-3.837 2.44c-1.477.547-3.335.813-5.579.813h-4.174v11.733h-4.174V6.954h8.513c1.886 0 3.478.158 4.783.475 1.305.316 2.467.813 3.478 1.49 1.191.806 2.116 1.806 2.769 3.001.645 1.195.975 2.714.975 4.55zm-4.339.1c0-1.087-.194-2.03-.566-2.836a4.745 4.745 0 00-1.729-1.965c-.674-.439-1.441-.748-2.309-.943-.861-.187-1.958-.28-3.277-.28h-4.131v12.582h3.521c1.685 0 3.055-.151 4.109-.454 1.054-.302 1.908-.784 2.568-1.446.659-.677 1.126-1.39 1.398-2.138.28-.749.416-1.591.416-2.52zM166.97 6.953l-11.919 26.49c-.481 1.073-1.04 1.95-1.693 2.642a7.707 7.707 0 01-2.116 1.605c-.731.353-1.434.59-2.115.713a11.82 11.82 0 01-1.972.18c-.56 0-1.241-.03-2.044-.087a57.21 57.21 0 00-1.542-.1V34.48h.294c.215.028.566.072 1.054.136.488.065 1.054.094 1.685.094.28 0 .675-.022 1.184-.065a4.95 4.95 0 001.348-.295 4.686 4.686 0 001.334-.806c.445-.367.817-.9 1.126-1.605l.76-1.67-11.668-23.323h4.611l9.165 18.565 8.212-18.565h4.296v.007zM195.534 36.15c-.774.338-1.47.655-2.094.95-.624.295-1.441.604-2.452.928-.861.267-1.786.497-2.79.691a18.097 18.097 0 01-3.314.288c-2.273 0-4.346-.324-6.203-.964a12.668 12.668 0 01-4.855-3.016c-1.348-1.34-2.403-3.038-3.156-5.104-.76-2.066-1.14-4.463-1.14-7.198 0-2.591.366-4.91 1.097-6.954.732-2.044 1.779-3.772 3.163-5.182 1.334-1.368 2.948-2.412 4.834-3.132 1.893-.72 3.987-1.08 6.289-1.08 1.686 0 3.364.21 5.042.613 1.678.41 3.543 1.13 5.594 2.159v4.967h-.316c-1.728-1.454-3.442-2.505-5.142-3.167-1.7-.663-3.521-.994-5.45-.994-1.592 0-3.02.26-4.289.77-1.269.519-2.402 1.318-3.399 2.397-.969 1.059-1.722 2.397-2.267 4.01-.545 1.612-.81 3.477-.81 5.593 0 2.217.294 4.117.896 5.708.596 1.598 1.37 2.894 2.31 3.894a9.2 9.2 0 003.442 2.318c1.313.504 2.697.749 4.16.749 2.008 0 3.887-.346 5.644-1.037 1.757-.69 3.399-1.727 4.927-3.11h.294v4.903h-.015zM203 3.592c0 .993-.351 1.835-1.047 2.534-.696.705-1.542 1.05-2.532 1.05a3.444 3.444 0 01-2.524-1.05 3.468 3.468 0 01-1.047-2.534c0-.986.351-1.836 1.047-2.534C197.6.353 198.439 0 199.428 0c.99 0 1.829.353 2.532 1.05.696.706 1.04 1.549 1.04 2.542zm-.481 0c0-.857-.301-1.59-.91-2.21a2.965 2.965 0 00-2.188-.921c-.853 0-1.585.31-2.187.921a3.053 3.053 0 00-.911 2.21c0 .857.301 1.59.911 2.21a2.963 2.963 0 002.187.921c.854 0 1.585-.302 2.188-.921.609-.62.91-1.353.91-2.21zm-.788 1.821h-.926l-1.369-1.468h-.667v1.468h-.682V1.62h1.291c.258 0 .474.007.639.036.165.021.329.072.494.158a.942.942 0 01.381.345c.086.137.121.303.121.504 0 .267-.078.49-.236.67a1.56 1.56 0 01-.646.424l1.6 1.656zm-1.456-2.706a.63.63 0 00-.058-.267.417.417 0 00-.193-.194.771.771 0 00-.273-.094 2.488 2.488 0 00-.366-.021h-.616v1.281h.523c.172 0 .316-.014.445-.043a.688.688 0 00.301-.137.649.649 0 00.237-.525z" fill="#47093E"/><path d="M23.652 28.75c0 1.562-.294 2.944-.882 4.146a8.392 8.392 0 01-2.381 2.959 11.083 11.083 0 01-3.887 1.986c-1.413.396-3.206.59-5.379.59H0V6.954h9.287c2.288 0 4.002.086 5.135.252 1.14.165 2.223.525 3.263 1.058 1.148.612 1.987 1.382 2.51 2.34.517.95.782 2.087.782 3.411 0 1.497-.38 2.764-1.14 3.815-.76 1.051-1.772 1.893-3.034 2.527v.172c2.123.44 3.794 1.368 5.013 2.8 1.226 1.426 1.836 3.233 1.836 5.42zm-7.014-14.188c0-.756-.129-1.403-.38-1.922-.25-.518-.66-.943-1.22-1.267-.659-.381-1.462-.611-2.402-.705-.94-.094-2.108-.137-3.5-.137H4.175v9.091h5.393c1.305 0 2.345-.064 3.12-.201a5.882 5.882 0 002.151-.835c.66-.417 1.126-.965 1.399-1.641.265-.677.401-1.469.401-2.383zm2.675 14.353c0-1.267-.186-2.274-.566-3.023-.38-.748-1.069-1.382-2.066-1.9-.674-.353-1.492-.583-2.453-.684-.96-.108-2.13-.158-3.506-.158H4.174V34.86h5.522c1.829 0 3.32-.093 4.49-.288 1.161-.187 2.122-.54 2.861-1.044.789-.554 1.363-1.18 1.728-1.886.359-.705.538-1.612.538-2.728zM50.237 38.431H29.576V6.954h20.661v3.721H33.742v8.63h16.495v3.722H33.742v11.69h16.495v3.715zM80.846 38.431h-4.174v-15.41H61.023v15.41H56.85V6.954h4.174v12.345h15.649V6.954h4.174V38.43zM114 38.431h-4.446l-3.077-8.774H92.915L89.84 38.43h-4.231L97.025 6.954h5.558L114 38.43zm-8.807-12.366L99.7 10.61l-5.515 15.455h11.008zM139.273 16.47c0 1.396-.244 2.685-.724 3.88-.488 1.187-1.162 2.224-2.03 3.095a10.359 10.359 0 01-3.837 2.44c-1.477.547-3.335.813-5.579.813h-4.174v11.733h-4.174V6.954h8.513c1.886 0 3.478.158 4.783.475 1.305.316 2.467.813 3.478 1.49 1.191.806 2.116 1.806 2.769 3.001.645 1.195.975 2.714.975 4.55zm-4.339.1c0-1.087-.194-2.03-.566-2.836a4.745 4.745 0 00-1.729-1.965c-.674-.439-1.441-.748-2.309-.943-.861-.187-1.958-.28-3.277-.28h-4.131v12.582h3.521c1.685 0 3.055-.151 4.109-.454 1.054-.302 1.908-.784 2.568-1.446.659-.677 1.126-1.39 1.398-2.138.28-.749.416-1.591.416-2.52zM166.97 6.953l-11.919 26.49c-.481 1.073-1.04 1.95-1.693 2.642a7.707 7.707 0 01-2.116 1.605c-.731.353-1.434.59-2.115.713a11.82 11.82 0 01-1.972.18c-.56 0-1.241-.03-2.044-.087a57.21 57.21 0 00-1.542-.1V34.48h.294c.215.028.566.072 1.054.136.488.065 1.054.094 1.685.094.28 0 .675-.022 1.184-.065a4.95 4.95 0 001.348-.295 4.686 4.686 0 001.334-.806c.445-.367.817-.9 1.126-1.605l.76-1.67-11.668-23.323h4.611l9.165 18.565 8.212-18.565h4.296v.007zM195.534 36.15c-.774.338-1.47.655-2.094.95-.624.295-1.441.604-2.452.928-.861.267-1.786.497-2.79.691a18.097 18.097 0 01-3.314.288c-2.273 0-4.346-.324-6.203-.964a12.668 12.668 0 01-4.855-3.016c-1.348-1.34-2.403-3.038-3.156-5.104-.76-2.066-1.14-4.463-1.14-7.198 0-2.591.366-4.91 1.097-6.954.732-2.044 1.779-3.772 3.163-5.182 1.334-1.368 2.948-2.412 4.834-3.132 1.893-.72 3.987-1.08 6.289-1.08 1.686 0 3.364.21 5.042.613 1.678.41 3.543 1.13 5.594 2.159v4.967h-.316c-1.728-1.454-3.442-2.505-5.142-3.167-1.7-.663-3.521-.994-5.45-.994-1.592 0-3.02.26-4.289.77-1.269.519-2.402 1.318-3.399 2.397-.969 1.059-1.722 2.397-2.267 4.01-.545 1.612-.81 3.477-.81 5.593 0 2.217.294 4.117.896 5.708.596 1.598 1.37 2.894 2.31 3.894a9.2 9.2 0 003.442 2.318c1.313.504 2.697.749 4.16.749 2.008 0 3.887-.346 5.644-1.037 1.757-.69 3.399-1.727 4.927-3.11h.294v4.903h-.015z" fill="#47093E"/></svg><svg preserveAspectRatio="xMidYMin meet" fill="none" viewBox="0 0 1440 233" id="menu-1" xmlns="http://www.w3.org/2000/svg"><path d="M0 175.235c116.668 39.274 305.231 81.112 443.346 39.548C651.274 152.21 827.213-49.982 1133.61 13.017c122.64 25.217 226.46 70.172 306.39 116.105" stroke="#590D56"/></svg><svg preserveAspectRatio="xMidYMin meet" fill="none" viewBox="0 0 1440 47" id="menu-2" xmlns="http://www.w3.org/2000/svg"><path d="M0 12.058c116.668-7.65 305.231-15.8 443.346-7.704 207.928 12.19 383.867 51.578 690.264 39.305 122.64-4.913 226.46-13.67 306.39-22.618" stroke="#590D56"/></svg><svg preserveAspectRatio="xMidYMin meet" fill="none" viewBox="0 0 1440 126" id="menu-3" xmlns="http://www.w3.org/2000/svg"><path d="M0 94.529c116.668 21.082 305.231 43.54 443.346 21.229C651.274 82.168 827.213-26.367 1133.61 7.45 1256.25 20.987 1360.07 45.12 1440 69.775" stroke="#590D56"/></svg><svg preserveAspectRatio="xMidYMin meet" fill="none" viewBox="0 0 1440 158" id="menu-4" xmlns="http://www.w3.org/2000/svg"><path d="M0 39.335c116.668-26.523 305.231-54.777 443.346-26.708C651.274 54.884 827.213 191.43 1133.61 148.885c122.64-17.03 226.46-47.39 306.39-78.409" stroke="#590D56"/></svg><svg preserveAspectRatio="xMidYMin meet" fill="none" viewBox="0 0 1440 70" id="menu-5" xmlns="http://www.w3.org/2000/svg"><path d="M0 52.29C116.668 63.85 305.231 76.167 443.346 63.932c207.928-18.42 383.867-77.94 690.264-59.395 122.64 7.424 226.46 20.657 306.39 34.178" stroke="#590D56"/></svg><svg fill="none" viewBox="0 0 27 27" id="ok" xmlns="http://www.w3.org/2000/svg"><path d="M11.463 9.18c0 1.23 1.054 2.285 2.343 2.285 1.23 0 2.285-.996 2.285-2.285 0-1.348-1.054-2.344-2.285-2.344-1.289 0-2.343.996-2.343 2.344zM26.93 3.438c0-1.524-1.289-2.813-2.812-2.813H3.494A2.813 2.813 0 00.68 3.438v20.625a2.777 2.777 0 002.813 2.812h20.625a2.813 2.813 0 002.812-2.813V3.438zM9.001 9.18c0-2.637 2.169-4.805 4.805-4.805 2.578 0 4.746 2.168 4.746 4.805 0 2.578-2.168 4.687-4.746 4.687-2.636 0-4.804-2.11-4.804-4.687zm10.255 5.273c.468.938-.06 1.406-1.29 2.168-.996.645-2.343.879-3.28.996l.76.762 2.813 2.812c.997 1.055-.644 2.637-1.699 1.641-.703-.703-1.699-1.7-2.754-2.813l-2.812 2.813c-1.055.996-2.696-.645-1.64-1.64.702-.762 1.698-1.758 2.753-2.813l.762-.762c-.88-.117-2.285-.351-3.281-.996-1.23-.762-1.758-1.23-1.29-2.168.293-.527.997-.996 1.993-.176 0 0 1.347 1.055 3.515 1.055 2.11 0 3.457-1.055 3.457-1.055.996-.82 1.7-.351 1.992.176z" fill="#7A7A7A"/></svg><svg fill="none" viewBox="0 0 91 39" id="pharm-studio" xmlns="http://www.w3.org/2000/svg"><path d="M5.72 11.654v5.343H.555V0h6.02c5.578 0 8.03 2.672 8.03 5.827s-2.452 5.827-8.03 5.827H5.72zm3.568-5.827a3.04 3.04 0 00-.18-1.142 2.845 2.845 0 00-.588-.965 2.569 2.569 0 00-.894-.626 2.391 2.391 0 00-1.05-.18H5.72V8.74h.856c.355.017.71-.047 1.042-.188.331-.14.633-.354.885-.628a2.84 2.84 0 00.579-.963c.13-.36.19-.747.175-1.134h.03zM15.502.083h4.684v5.261h.221a4.28 4.28 0 012.79-1.09c2.78 0 4.683 2.064 4.683 4.736v8.016h-4.684V8.99a1.805 1.805 0 00-.063-.661 1.713 1.713 0 00-.296-.581 1.555 1.555 0 00-.48-.41 1.432 1.432 0 00-.59-.171 2.23 2.23 0 00-1.528.832v8.99h-4.737V.083zM30.829 6.8a6.157 6.157 0 012.174-1.909 5.614 5.614 0 012.731-.637c3.683 0 5.898 2.405 5.898 5.469v3.637c.01 1.23.16 2.455.444 3.646H37.3l-.114-.974h-.222c-.771.84-1.813 1.321-2.903 1.34-2.79 0-4.684-2.064-4.684-4.37 0-2.064 1.895-4.162 4.684-4.162a5.014 5.014 0 012.903.833c0-1.665-.894-2.68-2.231-2.68-.96.062-1.87.492-2.567 1.215L30.829 6.8zm6.112 5.228a2.94 2.94 0 00-1.528-.483c-.175 0-.35.038-.512.111-.162.073-.31.18-.433.316a1.472 1.472 0 00-.29.473 1.57 1.57 0 000 1.115c.067.176.165.337.29.472.124.135.271.243.433.316.163.073.336.11.512.11a2.29 2.29 0 001.528-.832v-1.598zM5.615 38.665a5.696 5.696 0 01-2.958-.706 6.303 6.303 0 01-2.284-2.166l1.337-1.498c.356.468.799.85 1.299 1.122.5.27 1.047.424 1.605.451 1.337 0 1.872-.608 1.872-1.215 0-1.216-5.44-.966-5.44-5.22 0-1.822 1.894-3.887 5.24-3.887a5.066 5.066 0 012.625.57 5.583 5.583 0 012.06 1.86l-1.345 1.458a3.34 3.34 0 00-1.065-.821 3.097 3.097 0 00-1.273-.311c-.894 0-1.452.616-1.452 1.098 0 1.216 5.463.974 5.463 5.22 0 2.006-1.895 4.045-5.684 4.045zM18.107 33.437c0 1.582.764 2.43 1.788 2.43a2.325 2.325 0 001.452-.723l1.115 1.664a5.141 5.141 0 01-1.731 1.356 4.747 4.747 0 01-2.09.467c-3.231 0-5.233-2.189-5.233-5.227v-4.578h-1.765l4.775-6.077h1.689v3.163h2.896l-.451 2.914h-2.445v4.611zM35.421 34.653c.01 1.227.16 2.45.443 3.637h-4.79l-.138-.965h-.221c-.804.858-1.885 1.34-3.01 1.34-2.79 0-4.684-2.064-4.684-4.736v-8.016h4.706v8.016a1.81 1.81 0 00.053.679c.06.22.162.424.299.599.136.175.304.317.494.418.189.101.395.158.606.168a2.29 2.29 0 001.528-.832v-9.048h4.684l.03 8.74zM50.359 34.653c.01 1.227.159 2.45.443 3.637h-4.79l-.115-.974h-.222c-.804.859-1.885 1.34-3.01 1.34a5.407 5.407 0 01-2.27-.507 5.829 5.829 0 01-1.907-1.432 6.434 6.434 0 01-1.242-2.13 6.85 6.85 0 01-.38-2.49 6.85 6.85 0 01.38-2.49 6.434 6.434 0 011.242-2.129 5.829 5.829 0 011.907-1.432 5.407 5.407 0 012.27-.508 4.92 4.92 0 012.788.832h.222v-4.994h4.684v13.277zm-4.684.25V28.95a2.876 2.876 0 00-1.528-.491c-1.337 0-2.453 1.215-2.453 3.646 0 2.43 1.085 3.687 2.4 3.687a2.282 2.282 0 001.58-.89zM55.386 24.456a2.118 2.118 0 01-1.209-.465 2.42 2.42 0 01-.774-1.113 2.636 2.636 0 01-.084-1.394 2.49 2.49 0 01.634-1.214 2.17 2.17 0 011.143-.634c.43-.084.872-.03 1.274.157.401.187.744.498.984.895.241.396.37.862.37 1.337a2.605 2.605 0 01-.709 1.74 2.192 2.192 0 01-1.629.69zm2.33 13.834h-4.683V26.154h4.683V38.29zM66.747 25.546c4.012 0 6.8 3.039 6.8 6.56 0 3.52-2.788 6.559-6.8 6.559-4.011 0-6.777-3.038-6.777-6.56 0-3.52 2.766-6.559 6.777-6.559zm0 10.447c1.001 0 2.01-1.09 2.01-3.887 0-2.797-1.009-3.888-2.01-3.888-1 0-2.01 1.09-2.01 3.888 0 2.797 1.01 3.887 2.01 3.887zM52.024 4.287h-.511c-1.118-.008-2.195.458-3.003 1.298h-.23l-.114-.965h-4.798l.45 3.637v8.749h4.692V8.257a3.28 3.28 0 012.002-.832 3.35 3.35 0 012.376.624l-.864-3.762zM61.322 8.99c0-1.215-.557-1.823-1.337-1.823-.282.017-.559.1-.81.243-.25.144-.469.345-.642.59v8.99h-4.676V6.25l-.39-2.089h3.386l1.436 1.424h.244c.372-.43.82-.77 1.32-1a3.613 3.613 0 011.576-.332 4.255 4.255 0 012.112.41c.664.317 1.25.801 1.709 1.413h.221c.43-.546.959-.99 1.553-1.304a4.493 4.493 0 011.9-.52 4.023 4.023 0 011.737.284 4.31 4.31 0 011.492 1.01c.43.443.771.977 1.004 1.569.233.592.353 1.23.352 1.874v8.016h-4.714V8.99c0-1.215-.558-1.823-1.337-1.823-.283.017-.56.1-.81.243-.25.144-.47.345-.642.59v8.99h-4.684v-8z" fill="#828282"/><path opacity=".5" d="M85.903 14.642v-.491c0-.557.203-1.09.564-1.484.36-.393.85-.614 1.361-.614h.413c.253.004.504-.046.739-.147.235-.101.45-.252.631-.444a2.11 2.11 0 00.428-.673 2.257 2.257 0 00.015-1.619 2.12 2.12 0 00-.424-.693 1.92 1.92 0 00-.638-.459 1.787 1.787 0 00-.751-.152h-4.294c-.51.009-.995.237-1.35.635a2.201 2.201 0 00-.545 1.488v4.678c0 .556.203 1.09.564 1.483.36.393.85.614 1.361.614.255 0 .507-.055.742-.162.236-.107.449-.263.628-.46.18-.198.32-.432.416-.69.095-.257.143-.533.14-.81z" fill="#828282"/><path d="M82.036 5.286v.474c0 .556-.203 1.09-.564 1.483-.36.394-.85.615-1.361.615h-.436a1.79 1.79 0 00-.746.16 1.925 1.925 0 00-.631.463c-.18.198-.322.434-.417.693a2.264 2.264 0 00-.139.815c0 .276.05.55.147.804.098.255.24.487.42.682.18.195.393.35.627.454.235.105.486.158.74.157h4.286c.51 0 1-.22 1.361-.614.361-.393.564-.927.564-1.483V5.286c0-.557-.203-1.09-.564-1.484a1.849 1.849 0 00-1.361-.614c-.511 0-1 .221-1.362.614a2.197 2.197 0 00-.564 1.484z" fill="#828282"/></svg><svg fill="none" viewBox="0 0 67 67" id="play" xmlns="http://www.w3.org/2000/svg"><circle cx="33.5" cy="33.5" r="33" fill="#fff" fill-opacity=".3" stroke="#47093E"/><path d="M25.96 20.44L48.58 33.5 25.96 46.56V20.44z" stroke="#47093E"/></svg><svg viewBox="0 0 24 24" fill="none" id="search" xmlns="http://www.w3.org/2000/svg"><circle cx="10.233" cy="10.882" r="9.233" stroke="#47093E" stroke-width="2"/><path stroke="#47093E" stroke-width="2" d="M23.254 24.818l-6.489-6.489"/></svg><svg fill="none" viewBox="0 0 31 25" id="tw" xmlns="http://www.w3.org/2000/svg"><path d="M27.808 6.656c1.172-.879 2.226-1.933 3.047-3.164-1.055.469-2.286.82-3.516.938a6.011 6.011 0 002.695-3.399 12.995 12.995 0 01-3.867 1.524A6.153 6.153 0 0021.655.62a6.152 6.152 0 00-6.152 6.152c0 .47.059.938.176 1.407A17.85 17.85 0 012.964 1.734c-.527.88-.82 1.934-.82 3.106a6.053 6.053 0 002.753 5.098c-.996-.06-1.992-.293-2.812-.762v.058c0 2.989 2.11 5.45 4.922 6.036-.469.117-1.055.234-1.582.234-.41 0-.762-.059-1.172-.117.762 2.46 3.047 4.218 5.742 4.277-2.11 1.64-4.746 2.637-7.617 2.637-.527 0-.996-.059-1.465-.117 2.695 1.757 5.918 2.753 9.434 2.753 11.308 0 17.46-9.316 17.46-17.46v-.82z" fill="#7A7A7A"/></svg><svg fill="none" viewBox="0 0 33 20" id="vk" xmlns="http://www.w3.org/2000/svg"><path d="M31.369 1.664c.176-.703 0-1.289-1.055-1.289h-3.457c-.879 0-1.289.469-1.523.996 0 0-1.758 4.277-4.219 7.09-.82.762-1.172 1.055-1.64 1.055-.176 0-.528-.293-.528-.996V1.664c0-.879-.234-1.289-.996-1.289h-5.39c-.587 0-.88.41-.88.82 0 .82 1.23.996 1.348 3.34v5.098c0 1.113-.176 1.348-.645 1.348-1.171 0-3.984-4.336-5.683-9.258C6.349.785 5.998.375 5.119.375H1.662C.724.375.49.844.49 1.371c0 .938 1.172 5.45 5.45 11.484 2.87 4.102 6.913 6.27 10.546 6.27 2.168 0 2.461-.469 2.461-1.29 0-3.925-.176-4.335.879-4.335.527 0 1.406.293 3.457 2.285 2.344 2.344 2.754 3.34 4.043 3.34h3.457c.996 0 1.465-.469 1.172-1.465-.645-1.992-5.04-6.21-5.274-6.504-.527-.644-.351-.937 0-1.523 0 0 4.22-5.977 4.688-7.969z" fill="#7A7A7A"/></svg></svg>